<?xml version="1.0" standalone="no"?><!DOCTYPE svg PUBLIC "-//W3C//DTD SVG 1.1//EN" "http://www.w3.org/Graphics/SVG/1.1/DTD/svg11.dtd"><svg t="1560861036309" class="icon" style="" viewBox="0 0 1024 1024" version="1.1" xmlns="http://www.w3.org/2000/svg" p-id="3471" xmlns:xlink="http://www.w3.org/1999/xlink" width="200" height="200"><defs><style type="text/css"></style></defs><path d="M515.417331 978.654232c-58.611909 0.358157-352.582197-443.447694-352.582197-591.852676 0-196.158588 157.851121-355.080088 352.582197-355.080088 194.685028 0 352.537172 158.920476 352.537172 355.080088C867.954503 533.252023 573.099055 979.01239 515.417331 978.654232zM515.417331 71.986521c-172.369789 0-312.049039 140.391471-312.049039 313.38957 0 131.126456 260.158205 533.059642 312.049039 532.87954 51.045583 0.181125 312.048015-403.532613 312.048015-532.87954C827.465346 212.377992 687.744141 71.986521 515.417331 71.986521zM515.417331 534.851451c-81.151251 0-146.938584-66.276473-146.938584-148.049894 0-81.598436 65.787332-147.874909 146.938584-147.874909 81.108273 0 146.895605 66.276473 146.895605 147.874909C662.312936 468.574978 596.52458 534.851451 515.417331 534.851451zM515.417331 291.482631c-51.715849 0-93.622284 42.045605-93.622284 93.89346 0 52.022841 41.907459 94.069469 93.622284 94.069469 51.66673 0 93.580329-42.045605 93.580329-94.069469C608.99766 333.528236 567.084061 291.482631 515.417331 291.482631z" p-id="3472" fill="#2c2c2c"></path></svg>