<?xml version="1.0" standalone="no"?><!DOCTYPE svg PUBLIC "-//W3C//DTD SVG 1.1//EN" "http://www.w3.org/Graphics/SVG/1.1/DTD/svg11.dtd"><svg t="1561120722247" class="icon" viewBox="0 0 1024 1024" version="1.1" xmlns="http://www.w3.org/2000/svg" p-id="2883" xmlns:xlink="http://www.w3.org/1999/xlink" width="200" height="200"><defs><style type="text/css"></style></defs><path d="M807.0912 284.495872 693.748736 284.495872c1.703936-5.947392 2.637824-12.215296 2.637824-18.699264l0-44.020736c0-37.978112-31.311872-68.878336-69.797888-68.878336L397.410304 152.897536c-38.484992 0-69.796864 30.900224-69.796864 68.878336l0 44.020736c0 6.483968 0.932864 12.751872 2.637824 18.699264L216.907776 284.495872C153.765888 284.495872 102.4 335.038464 102.4 397.164544l0 361.269248c0 62.125056 51.371008 112.668672 114.507776 112.668672l590.183424 0c63.141888 0 114.5088-50.543616 114.5088-112.668672L921.6 397.164544C921.6 335.038464 870.233088 284.495872 807.0912 284.495872L807.0912 284.495872zM377.791488 265.796608l0-44.020736c0-10.1376 8.983552-18.699264 19.618816-18.699264l229.178368 0c10.635264 0 19.618816 8.561664 19.618816 18.699264l0 44.020736c0 10.136576-8.983552 18.699264-19.618816 18.699264L397.410304 284.495872C386.77504 284.495872 377.791488 275.933184 377.791488 265.796608L377.791488 265.796608zM216.907776 334.67392l180.502528 0 229.178368 0 180.502528 0c35.474432 0 64.329728 28.032 64.329728 62.490624l0 47.439872L152.573952 444.604416l0-47.439872C152.573952 362.70592 181.434368 334.67392 216.907776 334.67392L216.907776 334.67392zM594.774016 494.778368c-11.138048 36.660224-46.031872 63.491072-87.246848 63.491072-41.214976 0-76.1088-26.830848-87.246848-63.491072L594.774016 494.778368 594.774016 494.778368zM807.0912 820.923392 216.907776 820.923392c-35.472384 0-64.3328-28.03712-64.3328-62.4896L152.574976 494.778368l216.128512 0c12.043264 64.577536 69.710848 113.664 138.82368 113.664 69.117952 0 126.780416-49.087488 138.8288-113.664l225.06496 0 0 263.655424C871.420928 792.886272 842.560512 820.923392 807.0912 820.923392L807.0912 820.923392zM807.0912 820.923392" p-id="2884" fill="#2c2c2c"></path></svg>