<?xml version="1.0" standalone="no"?><!DOCTYPE svg PUBLIC "-//W3C//DTD SVG 1.1//EN" "http://www.w3.org/Graphics/SVG/1.1/DTD/svg11.dtd"><svg t="1561030598161" class="icon" viewBox="0 0 1024 1024" version="1.1" xmlns="http://www.w3.org/2000/svg" p-id="2002" xmlns:xlink="http://www.w3.org/1999/xlink" width="200" height="200"><defs><style type="text/css"></style></defs><path d="M914.18624 910.47936H103.97696c-23.62368 0-42.60864-9.43104-52.10112-25.86624-9.49248-16.4352-8.16128-37.60128 3.64544-58.0608l405.10464-701.65504c11.80672-20.45952 29.47072-32.19456 48.45568-32.19456s36.63872 11.73504 48.44544 32.19456l405.11488 701.65504c11.80672 20.45952 13.12768 41.6256 3.6352 58.07104-9.472 16.42496-28.4672 25.856-52.09088 25.856zM509.0816 133.66272c-2.87744 0-7.99744 3.072-12.99456 11.71456L90.99264 847.03232c-4.98688 8.64256-5.07904 14.61248-3.64544 17.1008s6.64576 5.38624 16.62976 5.38624h810.21952c9.984 0 15.18592-2.89792 16.62976-5.38624 1.4336-2.47808 1.34144-8.45824-3.64544-17.1008L522.05568 145.36704c-4.97664-8.63232-10.09664-11.70432-12.97408-11.70432z" p-id="2003" fill="#2c2c2c"></path><path d="M509.0816 675.84a25.67168 25.67168 0 0 1-25.6-25.6v-296.96c0-14.08 11.52-25.6 25.6-25.6s25.6 11.52 25.6 25.6v296.96c0 14.08-11.52 25.6-25.6 25.6z" p-id="2004" fill="#2c2c2c"></path><path d="M509.0816 732.16m-25.6 0a25.6 25.6 0 1 0 51.2 0 25.6 25.6 0 1 0-51.2 0Z" p-id="2005" fill="#2c2c2c"></path></svg>