<?xml version="1.0" standalone="no"?><!DOCTYPE svg PUBLIC "-//W3C//DTD SVG 1.1//EN" "http://www.w3.org/Graphics/SVG/1.1/DTD/svg11.dtd"><svg t="1561041008393" class="icon" viewBox="0 0 1024 1024" version="1.1" xmlns="http://www.w3.org/2000/svg" p-id="2015" xmlns:xlink="http://www.w3.org/1999/xlink" width="200" height="200"><defs><style type="text/css"></style></defs><path d="M940.936189 483.222583l-16.813944-16.404622c-23.277146-22.642696-60.989049-22.642696-84.258009 0L511.412622 786.512121 182.958962 466.817961c-23.26896-22.642696-60.980863-22.642696-84.214007 0L81.889055 483.222583c-23.236214 22.64065-23.236214 59.349713 0 81.954547l370.436844 360.591615c0.032746 0.040932 0.067538 0.110517 0.110517 0.152473l16.84669 16.371876c23.234167 22.64065 60.946071 22.64065 84.223217 0l16.84669-16.371876c0.044002-0.040932 0.078795-0.110517 0.110517-0.152473l370.395912-360.591615C964.205149 542.572296 964.205149 505.863233 940.936189 483.222583L940.936189 483.222583z" p-id="2016" fill="#a7aaa5"></path></svg>