<?xml version="1.0" standalone="no"?><!DOCTYPE svg PUBLIC "-//W3C//DTD SVG 1.1//EN" "http://www.w3.org/Graphics/SVG/1.1/DTD/svg11.dtd"><svg t="1561120763521" class="icon" viewBox="0 0 1024 1024" version="1.1" xmlns="http://www.w3.org/2000/svg" p-id="4681" xmlns:xlink="http://www.w3.org/1999/xlink" width="200" height="200"><defs><style type="text/css"></style></defs><path d="M592 256H432c-12.8 0-25.6-8-30.4-20.8l-64-160c-3.2-9.6-3.2-20.8 3.2-30.4 6.4-8 16-12.8 27.2-12.8h288c11.2 0 20.8 4.8 27.2 14.4 6.4 8 6.4 19.2 3.2 30.4l-64 160C617.6 248 604.8 256 592 256z m-137.6-64h116.8L608 96H416l38.4 96zM512 992c-9.6 0-17.6-3.2-24-9.6l-176-192c-8-8-9.6-19.2-8-30.4l112-416c3.2-14.4 16-24 30.4-24h128c14.4 0 27.2 9.6 30.4 24l112 416c3.2 11.2 0 22.4-8 30.4l-176 192c-3.2 6.4-11.2 9.6-20.8 9.6zM371.2 760L512 912l140.8-153.6L552 384h-78.4L371.2 760z" fill="#2c2c2c" p-id="4682"></path></svg>