<?xml version="1.0" standalone="no"?><!DOCTYPE svg PUBLIC "-//W3C//DTD SVG 1.1//EN" "http://www.w3.org/Graphics/SVG/1.1/DTD/svg11.dtd"><svg t="1561036622997" class="icon" viewBox="0 0 1024 1024" version="1.1" xmlns="http://www.w3.org/2000/svg" p-id="21417" xmlns:xlink="http://www.w3.org/1999/xlink" width="200" height="200"><defs><style type="text/css"></style></defs><path d="M711.410144 210.025411c106.286722 0 192.351889 86.159312 192.44501 192.446034 0.141216 159.187559-230.691079 343.351975-384.89309 435.384042 0 0-384.891044-226.031966-384.891044-435.384042 0-106.286722 86.160335-192.446034 192.446034-192.446034 0 0 141.091412-11.57564 192.757119 129.72555C519.275195 339.751984 552.175513 210.025411 711.410144 210.025411z" p-id="21418" fill="#ec6975"></path><path d="M518.963087 863.439164c-4.477988 0-8.954953-1.172709-12.955056-3.52222-4.009314-2.354628-99.313913-58.626235-196.162682-141.840472-57.432037-49.346895-103.34574-97.93245-136.467091-144.405901-43.056632-60.415998-64.888869-118.014834-64.888869-171.19708 0-58.238402 22.678512-112.990401 63.859423-154.170289 40.971134-40.971134 95.377254-63.628156 153.284105-63.856353 1.576915-0.096191 4.532223-0.231267 8.631588-0.231267 19.196201 0 57.459666 2.840698 98.042967 21.86703 23.562649 11.045567 44.450375 26.010397 62.08194 44.478004 8.964162 9.387811 17.101493 19.702738 24.3772 30.885428 4.910846-7.559163 10.715039-15.451924 17.537422-23.317055 29.153994-33.614585 83.200934-73.683163 175.10611-73.683163 58.229193 0 112.969934 22.680559 154.137543 63.86147 41.149189 41.163515 63.83998 95.906304 63.891146 154.144706 0.068562 78.259388-47.707558 166.048827-142.005224 260.931824-97.088222 97.69095-210.923874 169.922041-255.359922 196.443068C528.036743 862.232686 523.499403 863.439164 518.963087 863.439164zM328.558549 235.527225c-0.738827 0.064468-1.289366 0.080841-2.040473 0.080841-92.009554 0-166.863379 74.854848-166.863379 166.863379 0 77.914534 63.46545 173.628456 183.535083 276.795117 73.079412 62.791092 146.760528 110.566188 175.815261 128.648009 49.25889-30.293957 147.542334-95.479585 232.138034-180.601264 83.225493-83.742263 127.186727-161.483858 127.130446-224.819348-0.080841-92.021833-74.93569-166.885891-166.862355-166.885891-57.405431 0-102.836133 18.312064-135.033439 54.426587-23.980157 26.898627-31.905664 54.577013-32.32215 56.081273-2.673899 10.9197-12.132318 18.679431-23.364127 19.316951-11.229762 0.638543-21.570271-6.305613-25.441439-16.895809-16.526395-45.199435-45.010123-77.54205-84.660168-96.129384-32.783661-15.369036-64.297398-17.028838-76.324316-17.028838C330.937736 235.378845 328.90852 235.503688 328.558549 235.527225z" p-id="21419" fill="#ec6975"></path></svg>