<?xml version="1.0" standalone="no"?><!DOCTYPE svg PUBLIC "-//W3C//DTD SVG 1.1//EN" "http://www.w3.org/Graphics/SVG/1.1/DTD/svg11.dtd"><svg t="1562492457769" class="icon" viewBox="0 0 1024 1024" version="1.1" xmlns="http://www.w3.org/2000/svg" p-id="18251" data-spm-anchor-id="a313x.7781069.0.i49" xmlns:xlink="http://www.w3.org/1999/xlink" width="200" height="200"><defs><style type="text/css"></style></defs><path d="M664.623787 137.09312H255.30368c-22.67136 0-41.198933 17.63328-41.198933 39.164587v657.844906c0 21.52448 18.527573 39.144107 41.198933 39.144107h153.040213l-32.535893-30.917973 375.3984-356.713814 58.647893 55.72608V275.121493L664.623787 137.09312z" fill="#d4e7fd" p-id="18252" data-spm-anchor-id="a313x.7781069.0.i42" class=""></path><path d="M751.213227 485.628587l-375.3984 356.706986 32.535893 30.917974h360.297813c22.657707 0 41.212587-17.619627 41.212587-39.144107V541.354667l-58.647893-55.72608z" fill="#d4e7fd" p-id="18253" data-spm-anchor-id="a313x.7781069.0.i43" class=""></path><path d="M664.623787 137.09312v138.028373h145.257813L664.623787 137.09312z" fill="#224fa4" p-id="18254" data-spm-anchor-id="a313x.7781069.0.i45" class=""></path><path d="M809.888427 413.149867V275.121493H664.623787l145.26464 138.028374z" fill="#13227a" p-id="18255" data-spm-anchor-id="a313x.7781069.0.i50" class=""></path><path d="M660.48 321.55648c0 10.164907-8.676693 18.404693-19.37408 18.404693H531.3536c-10.697387 0-19.37408-8.239787-19.37408-18.404693v-1.918293c0-10.15808 8.676693-18.404693 19.37408-18.404694h109.75232c10.697387 0 19.37408 8.246613 19.37408 18.404694v1.918293z m0 88.378027c0 10.164907-8.676693 18.397867-19.37408 18.397866H531.3536c-10.697387 0-19.37408-8.23296-19.37408-18.397866v-1.911467c0-10.164907 8.676693-18.404693 19.37408-18.404693h109.75232c10.697387 0 19.37408 8.239787 19.37408 18.404693v1.911467zM280.036693 531.82464c-10.697387 0-19.367253 8.239787-19.367253 18.397867v1.911466c0 10.171733 8.676693 18.41152 19.367253 18.41152h381.822294l40.7552-38.72768H280.036693z m482.59072 0h-60.020053l-40.7552 38.72768h100.775253c10.69056 0 19.367253-8.239787 19.367254-18.41152v-1.911467c0-10.164907-8.676693-18.404693-19.367254-18.404693zM280.036693 639.563093c-10.697387 0-19.367253 8.239787-19.367253 18.397867v1.92512c0 10.144427 8.676693 18.397867 19.367253 18.397867H548.4544l40.7552-38.72768H280.036693z m482.59072 0h-173.397333l-40.7552 38.72768h214.173013c10.69056 0 19.367253-8.25344 19.367254-18.397866v-1.92512c-0.02048-10.151253-8.704-18.404693-19.387734-18.404694z m-482.59072 107.738454c-10.697387 0-19.367253 8.23296-19.367253 18.41152v1.90464c0 10.164907 8.676693 18.397867 19.367253 18.397866h155.040427l40.7552-38.720853H280.036693zM762.627413 747.301547H475.825493l-40.7552 38.720853h327.550294c10.69056 0 19.367253-8.23296 19.367253-18.397867v-1.90464c0.006827-10.185387-8.669867-18.418347-19.360427-18.418346z" fill="#224fa4" p-id="18256" data-spm-anchor-id="a313x.7781069.0.i46" class=""></path><path d="M433.923413 210.28864h-3.05152c1.119573 1.1264 2.000213 2.450773 3.05152 3.652267v-3.652267z m-116.210346 0v3.652267c1.06496-1.194667 1.938773-2.525867 3.065173-3.652267h-3.065173z m58.10176 129.39264a77.591893 77.591893 0 0 1-58.10176-26.19392v124.736853l58.10176-56.989013 58.108586 56.989013V313.48736c-14.588587 16.581973-35.785387 26.13248-58.108586 26.19392z" fill="#eb6762" p-id="18257" data-spm-anchor-id="a313x.7781069.0.i53" class=""></path><path d="M375.814827 339.68128a77.605547 77.605547 0 0 0 58.108586-26.19392V213.93408c-1.06496-1.194667-1.938773-2.525867-3.05152-3.652267H320.771413c-1.1264 1.1264-2.013867 2.471253-3.065173 3.652267v99.55328c14.58176 16.581973 35.785387 26.139307 58.108587 26.19392z" fill="#A52020" p-id="18258"></path><path d="M375.814827 187.71968c40.093013 0 72.690347 29.996373 76.67712 68.266667 0.273067-2.56 0.791893-5.072213 0.791893-7.714134 0-41.956693-34.679467-75.973973-77.469013-75.973973-42.789547 0-77.469013 34.01728-77.469014 75.973973 0 2.64192 0.525653 5.147307 0.791894 7.714134 3.986773-38.270293 36.584107-68.266667 76.67712-68.266667z" fill="#D3711A" p-id="18259"></path><path d="M375.814827 324.25984c40.093013 0 72.690347-29.975893 76.67712-68.266667-3.986773-38.270293-36.584107-68.266667-76.67712-68.266666-40.093013 0-72.690347 29.996373-76.670294 68.266666 3.979947 38.270293 36.57728 68.266667 76.670294 68.266667z" fill="#D3711A" p-id="18260"></path><path d="M375.814827 187.71968c40.3456 0 73.1136 30.37184 76.75904 69.010773a9.516373 9.516373 0 0 0 8.901973-9.345706c-0.02048-5.05856-4.102827-9.209173-9.25696-9.4208l-0.095573-0.989867a9.352533 9.352533 0 0 0 6.171306-11.318613 9.577813 9.577813 0 0 0-11.03872-6.765227c-0.150187-0.354987-0.382293-0.703147-0.539306-1.06496a9.29792 9.29792 0 0 0 2.833066-12.34944 9.714347 9.714347 0 0 0-12.765866-3.631787l-0.63488-0.75776a9.29792 9.29792 0 0 0-0.395947-12.88192 9.775787 9.775787 0 0 0-13.284693-0.279893c-0.293547-0.170667-0.546133-0.395947-0.805547-0.607573a9.366187 9.366187 0 0 0-3.80928-12.253867 9.714347 9.714347 0 0 0-12.71808 2.921813c-0.36864-0.150187-0.75776-0.211627-1.1264-0.341333a9.407147 9.407147 0 0 0-6.874453-10.77248 9.721173 9.721173 0 0 0-11.700907 6.341973l-0.969387-0.095573a9.530027 9.530027 0 0 0-9.54368-8.88832 9.557333 9.557333 0 0 0-9.598293 9.065813l-1.010347 0.1024a9.652907 9.652907 0 0 0-11.543893-6.075733 9.386667 9.386667 0 0 0-6.867627 10.847573c-0.395947 0.150187-0.7168 0.361813-1.112746 0.512a9.700693 9.700693 0 0 0-12.567894-2.751146 9.33888 9.33888 0 0 0-3.693226 12.53376l-0.77824 0.628053a9.741653 9.741653 0 0 0-13.12768 0.382293 9.332053 9.332053 0 0 0-0.273067 13.011627c-0.232107 0.28672-0.464213 0.512-0.67584 0.79872a9.734827 9.734827 0 0 0-12.499627 3.720533 9.352533 9.352533 0 0 0 2.99008 12.51328c-0.116053 0.34816-0.191147 0.723627-0.32768 1.08544a9.611947 9.611947 0 0 0-10.97728 6.7584 9.448107 9.448107 0 0 0 6.464854 11.461974l-0.116054 0.955733c-5.051733 0.3072-9.0112 4.4032-9.045333 9.37984 0 4.901547 3.85024 8.792747 8.738133 9.284267 2.771627-39.451307 35.949227-70.724267 76.916054-70.724267zM298.714453 259.979947a9.243307 9.243307 0 0 0-5.399893 10.881706c0.866987 3.072 3.29728 5.474987 6.423893 6.341974a71.830187 71.830187 0 0 1-1.39264-13.509974c0-1.26976 0.314027-2.43712 0.36864-3.713706z m3.365547 31.054506c0.682667 1.133227 1.59744 2.10944 2.696533 2.853547a70.2464 70.2464 0 0 1-3.413333-10.274133c-0.846507 2.4576-0.587093 5.16096 0.7168 7.420586z m148.363947-1.51552c1.399467-2.4576 1.57696-5.40672 0.457386-8.000853-0.88064 3.754667-2.048 7.420587-3.488426 11.004587 1.235627-0.75776 2.27328-1.788587 3.03104-3.003734z m2.245973-31.614293c0.157013 1.959253 0.59392 3.822933 0.59392 5.79584 0 4.089173-0.59392 8.021333-1.215147 11.933013 3.269973-0.826027 5.8368-3.290453 6.73792-6.478506a9.4208 9.4208 0 0 0-6.116693-11.250347z" fill="#224fa4" p-id="18261" data-spm-anchor-id="a313x.7781069.0.i52" class=""></path><path d="M452.68992 257.90464c-0.136533-0.034133-0.232107-0.150187-0.36864-0.18432l0.1024-0.948907 0.157013-0.04096c-3.64544-38.652587-36.399787-69.010773-76.75904-69.010773-40.946347 0-74.11712 31.27296-76.92288 70.71744 0.170667 0.02048 0.300373 0.12288 0.498347 0.12288l0.095573 0.98304c-0.293547 0.116053-0.49152 0.32768-0.771413 0.436907-0.054613 1.256107-0.38912 2.443947-0.38912 3.720533 0 4.635307 0.580267 9.099947 1.39264 13.509973 1.488213 0.498347 3.072 0.628053 4.62848 0.395947 0.177493 0.382293 0.395947 0.703147 0.55296 1.06496-1.693013 1.2288-2.92864 2.94912-3.556693 4.922027 0.969387 3.515733 1.959253 7.010987 3.413333 10.274133a9.8304 9.8304 0 0 0 10.089813 0.77824l0.63488 0.75776a9.304747 9.304747 0 0 0 0.38912 12.88192c3.638613 3.556693 9.48224 3.6864 13.27104 0.28672 0.28672 0.211627 0.525653 0.457387 0.812374 0.669013a9.3184 9.3184 0 0 0 3.802453 12.233387c4.36224 2.43712 9.91232 1.160533 12.71808-2.92864 0.375467 0.136533 0.75776 0.211627 1.1264 0.34816a9.393493 9.393493 0 0 0 7.5776 10.990933 9.58464 9.58464 0 0 0 11.004587-6.567253l0.969386 0.095573a9.557333 9.557333 0 0 0 9.54368 8.88832 9.550507 9.550507 0 0 0 9.60512-9.058986l1.010347-0.095574a9.659733 9.659733 0 0 0 11.543893 6.075734 9.37984 9.37984 0 0 0 6.867627-10.840747c0.395947-0.150187 0.7168-0.361813 1.10592-0.539307a9.693867 9.693867 0 0 0 12.57472 2.771627 9.352533 9.352533 0 0 0 3.700053-12.53376l0.771414-0.628053a9.74848 9.74848 0 0 0 13.12768-0.382294 9.325227 9.325227 0 0 0 0.273066-13.0048c0.232107-0.28672 0.457387-0.512 0.682667-0.805546a9.762133 9.762133 0 0 0 9.46176-0.7168c1.440427-3.577173 2.607787-7.256747 3.488427-10.99776a9.475413 9.475413 0 0 0-3.467947-4.48512c0.157013-0.361813 0.211627-0.73728 0.354987-1.099094 1.419947 0.2048 2.874027 0.1024 4.253013-0.300373 0.641707-3.91168 1.221973-7.84384 1.221973-11.933013 0.006827-2.000213-0.436907-3.863893-0.587093-5.823147z" fill="#224fa4" p-id="18262" data-spm-anchor-id="a313x.7781069.0.i51" class="selected"></path><path d="M413.989547 197.98016a64.423253 64.423253 0 0 0-38.1952-12.63616 64.423253 64.423253 0 0 0-38.1952 12.63616 77.981013 77.981013 0 0 1 38.1952-10.26048c13.96736 0 26.883413 3.918507 38.1952 10.26048z" fill="#FCD036" p-id="18263"></path><path d="M311.64416 248.27904c0 34.747733 28.719787 62.907733 64.14336 62.907733 35.4304 0 64.150187-28.16 64.150187-62.907733-0.04096-19.858773-9.673387-38.516053-25.975467-50.29888a77.960533 77.960533 0 0 0-38.1952-10.26048c-13.953707 0-26.883413 3.918507-38.1952 10.26048-16.267947 11.79648-25.88672 30.446933-25.92768 50.29888z" fill="#f5cb4a" p-id="18264" data-spm-anchor-id="a313x.7781069.0.i54" class=""></path></svg>