<?xml version="1.0" standalone="no"?><!DOCTYPE svg PUBLIC "-//W3C//DTD SVG 1.1//EN" "http://www.w3.org/Graphics/SVG/1.1/DTD/svg11.dtd"><svg t="1560960675305" class="icon" style="" viewBox="0 0 1024 1024" version="1.1" xmlns="http://www.w3.org/2000/svg" p-id="4172" xmlns:xlink="http://www.w3.org/1999/xlink" width="200" height="200"><defs><style type="text/css"></style></defs><path d="M882.7904 382.3872C830.72 220.032 687.2832 102.8608 518.5024 102.8608c-168.1408 0-311.1168 116.3264-363.6736 277.7856-71.2704 5.4016-127.744 68.6848-127.744 145.8944v106.6496c0 80.7168 61.7216 146.4064 137.5744 146.4064h73.6512a38.4 38.4 0 0 0 38.4-38.4V418.5088a38.4 38.4 0 0 0-38.4-38.4h-1.792c48.1024-117.9136 156.288-200.448 281.984-200.448 125.7216 0 233.9328 82.5344 282.0096 200.448h-14.8224a38.4 38.4 0 0 0-38.4 38.4v322.6624c0 9.7536 3.7632 18.56 9.7536 25.344-57.4208 66.4064-141.9264 104.32-245.8368 104.32a25.6 25.6 0 1 0 0 51.2c129.0496 0 233.9328-52.6592 300.5952-142.464h47.5136c75.8528 0 137.5744-65.664 137.5744-146.4064v-106.6496c0.0256-72.2176-49.3824-132.224-114.0992-144.128zM199.9104 542.0544v160.7424H164.6592c-33.5104 0-60.7744-31.232-60.7744-69.6064v-106.6496c0-6.0416 0.8704-11.8016 2.1504-17.3824 0.3072-1.3312 0.6912-2.6368 1.0752-3.9424 1.408-4.8384 3.1232-9.4976 5.376-13.7984 0.2304-0.4608 0.4096-0.9472 0.6656-1.408 5.6576-10.4192 13.6448-18.8672 23.1424-24.6528a59.136 59.136 0 0 1 12.6208-5.76c0.4608-0.128 0.8704-0.3328 1.3312-0.4608 4.608-1.3824 9.4208-2.2016 14.4128-2.2016h35.2512v85.12z m720.2048 91.1104c0 38.3744-27.264 69.6064-60.7744 69.6064H824.1152V456.9088h35.2512c16.6656 0 31.7952 7.7568 42.8032 20.2752a74.752 74.752 0 0 1 17.9712 49.3568v106.624z" fill="#2c2c2c" p-id="4173"></path></svg>