<?xml version="1.0" standalone="no"?><!DOCTYPE svg PUBLIC "-//W3C//DTD SVG 1.1//EN" "http://www.w3.org/Graphics/SVG/1.1/DTD/svg11.dtd"><svg t="1561036439301" class="icon" viewBox="0 0 1024 1024" version="1.1" xmlns="http://www.w3.org/2000/svg" p-id="12836" xmlns:xlink="http://www.w3.org/1999/xlink" width="200" height="200"><defs><style type="text/css"></style></defs><path d="M228.957 425.915c-62.524 0-113.391 50.867-113.391 113.391 0 62.523 50.867 113.391 113.391 113.391s113.391-50.867 113.391-113.391c0-62.524-50.867-113.391-113.391-113.391z" fill="#76b3fe" p-id="12837" data-spm-anchor-id="a313x.7781069.0.i25" class=""></path><path d="M912.528 211.496c0-62.524-50.867-113.391-113.391-113.391s-113.391 50.867-113.391 113.391c0 62.523 50.867 113.391 113.391 113.391s113.391-50.867 113.391-113.391zM799.137 692.696c-62.524 0-113.391 50.867-113.391 113.391 0 62.524 50.867 113.391 113.391 113.391s113.391-50.867 113.391-113.391c0-62.524-50.867-113.391-113.391-113.391z" fill="#76b3fe" p-id="12838" data-spm-anchor-id="a313x.7781069.0.i26" class=""></path><path d="M799.137 657.823c-51.024 0-96.109 25.91-122.794 65.262L376.238 556.332c0.642-5.589 0.983-11.268 0.983-17.026 0-17.893-3.186-35.056-9.021-50.951l320.479-178.073c27.168 30.346 66.618 49.478 110.458 49.478 81.753 0 148.264-66.511 148.264-148.264 0-81.753-66.511-148.265-148.264-148.265-81.753 0-148.264 66.511-148.264 148.265 0 19.32 3.719 37.787 10.472 54.729L342.104 443.609c-27.218-32.131-67.837-52.568-113.147-52.568-81.753 0-148.264 66.511-148.264 148.265 0 81.753 66.511 148.264 148.264 148.264 57.373 0 107.236-32.759 131.875-80.552l294.35 163.554a148.063 148.063 0 0 0-4.31 35.515c0 81.753 66.511 148.264 148.264 148.264 81.753 0 148.264-66.511 148.264-148.264s-66.51-148.264-148.263-148.264zM685.746 211.496c0-62.524 50.867-113.391 113.391-113.391s113.391 50.867 113.391 113.391c0 62.523-50.867 113.391-113.391 113.391S685.746 274.02 685.746 211.496z m-343.398 327.81c0 62.523-50.867 113.391-113.391 113.391S115.566 601.83 115.566 539.306c0-62.524 50.867-113.391 113.391-113.391s113.391 50.867 113.391 113.391z m456.789 380.172c-62.524 0-113.391-50.867-113.391-113.391 0-62.524 50.867-113.391 113.391-113.391s113.391 50.867 113.391 113.391c0 62.524-50.867 113.391-113.391 113.391z" fill="#063d9a" p-id="12839" data-spm-anchor-id="a313x.7781069.0.i27" class="selected"></path></svg>