<?xml version="1.0" standalone="no"?><!DOCTYPE svg PUBLIC "-//W3C//DTD SVG 1.1//EN" "http://www.w3.org/Graphics/SVG/1.1/DTD/svg11.dtd"><svg t="1560860999053" class="icon" style="" viewBox="0 0 1024 1024" version="1.1" xmlns="http://www.w3.org/2000/svg" p-id="2475" xmlns:xlink="http://www.w3.org/1999/xlink" width="200" height="200"><defs><style type="text/css"></style></defs><path d="M888.832 724.992c-6.144 10.24-18.432 14.336-28.672 8.192-10.24-6.144-14.336-18.432-8.192-28.672 104.448-188.416 36.864-423.936-151.552-528.384-188.416-104.448-423.936-36.864-528.384 151.552s-36.864 423.936 151.552 528.384c135.168 75.776 301.056 61.44 423.936-28.672 8.192-6.144 22.528-4.096 28.672 4.096 6.144 8.192 4.096 22.528-4.096 28.672-135.168 102.4-317.44 116.736-466.944 32.768-206.848-114.688-282.624-376.832-167.936-583.68 114.688-206.848 376.832-282.624 583.68-167.936 206.848 114.688 282.624 376.832 167.936 583.68z m-356.352-505.856v288.768l288.768 86.016c10.24 4.096 16.384 14.336 14.336 24.576-4.096 10.24-14.336 16.384-24.576 14.336l-319.488-96.256v-319.488c0-12.288 8.192-20.48 20.48-20.48s20.48 10.24 20.48 22.528z" p-id="2476" fill="#2c2c2c"></path></svg>